<svg width="26" height="31" viewBox="0 0 26 31" fill="none" xmlns="http://www.w3.org/2000/svg">
<path d="M13 0.5C19.9222 0.5 25.5 5.89088 25.5 12.5C25.5 19.1091 19.9222 24.5 13 24.5C6.07778 24.5 0.5 19.1091 0.5 12.5C0.5 5.89088 6.07778 0.5 13 0.5Z" fill="url(#paint0_radial_59_309)" stroke="#FDA800"/>
<g filter="url(#filter0_df_59_309)">
<path d="M6.49371 18.262C5.70797 16.4744 5.97644 15.1448 6.49371 13.262C7.30171 10.3209 10.7951 10.231 11.4937 7.26198C11.8515 5.74141 11.4937 3.26198 11.4937 3.26198C11.4937 3.26198 13.1623 4.55818 13.4937 5.00001C14.8996 6.87452 14.0065 9.70807 14.4937 12C14.7401 13.159 16.4113 9.8631 16.4937 8.76198C16.9505 8.1329 17.8297 11.1729 17.4937 12.262C17.1577 13.351 19.3161 14.6421 19.9937 14.762C19.9937 14.762 20.1137 17.8282 19.4937 19.262C18.7187 21.0542 15.4937 22.262 15.4937 22.262C15.4937 22.262 16.1986 19.8972 15.5 18.5C15.006 17.512 14.281 17.781 13.5 17C12.719 16.219 12.2748 15.543 11.4937 14.762C10.7127 13.9809 9.99371 12.262 9.49371 12.262C8.99371 12.262 8.99371 14.262 8.99371 14.262C9.59997 20.5572 9.37456 21.437 8.49371 20.762C8.49371 20.762 6.99683 19.4066 6.49371 18.262Z" fill="#FFAA00"/>
</g>
<g filter="url(#filter1_df_59_309)">
<path d="M6.49371 18.262C5.70797 16.4744 5.97644 15.1448 6.49371 13.262C7.30171 10.3209 10.7951 10.231 11.4937 7.26198C11.8515 5.74141 11.4937 3.26198 11.4937 3.26198C11.4937 3.26198 13.1623 4.55818 13.4937 5.00001C14.8996 6.87452 14.0065 9.70807 14.4937 12C14.7401 13.159 16.4113 9.8631 16.4937 8.76198C16.9505 8.1329 17.8297 11.1729 17.4937 12.262C17.1577 13.351 19.3161 14.6421 19.9937 14.762C19.9937 14.762 20.1137 17.8282 19.4937 19.262C18.7187 21.0542 15.4937 22.262 15.4937 22.262C15.4937 22.262 16.1986 19.8972 15.5 18.5C15.006 17.512 14.281 17.781 13.5 17C12.719 16.219 12.2748 15.543 11.4937 14.762C10.7127 13.9809 9.99371 12.262 9.49371 12.262C8.99371 12.262 8.99371 14.262 8.99371 14.262C9.59997 20.5572 9.37456 21.437 8.49371 20.762C8.49371 20.762 6.99683 19.4066 6.49371 18.262Z" fill="#DB490B"/>
</g>
<path d="M6.49371 18.262C5.70797 16.4744 5.97644 15.1448 6.49371 13.262C7.30171 10.3209 10.7951 10.231 11.4937 7.26198C11.8515 5.74141 11.4937 3.26198 11.4937 3.26198C11.4937 3.26198 13.1623 4.55818 13.4937 5.00001C14.8996 6.87452 14.0065 9.70807 14.4937 12C14.7401 13.159 16.4113 9.8631 16.4937 8.76198C16.9505 8.1329 17.8297 11.1729 17.4937 12.262C17.1577 13.351 19.3161 14.6421 19.9937 14.762C19.9937 14.762 20.1137 17.8282 19.4937 19.262C18.7187 21.0542 15.4937 22.262 15.4937 22.262C15.4937 22.262 16.1923 19.6592 15.4937 18.262C14.9997 17.274 15.2748 17.043 14.4937 16.262C13.7127 15.4809 12.2748 15.543 11.4937 14.762C10.7127 13.9809 11 13.5 10.5 13.5C10 13.5 10 18.262 10 18.262C10 18.5 9.37456 21.437 8.49371 20.762C8.49371 20.762 6.99683 19.4066 6.49371 18.262Z" fill="#FFAA00"/>
<defs>
<filter id="filter0_df_59_309" x="2" y="0.661978" width="22.0031" height="29.6" filterUnits="userSpaceOnUse" color-interpolation-filters="sRGB">
<feFlood flood-opacity="0" result="BackgroundImageFix"/>
<feColorMatrix in="SourceAlpha" type="matrix" values="0 0 0 0 0 0 0 0 0 0 0 0 0 0 0 0 0 0 127 0" result="hardAlpha"/>
<feOffset dy="4"/>
<feGaussianBlur stdDeviation="2"/>
<feComposite in2="hardAlpha" operator="out"/>
<feColorMatrix type="matrix" values="0 0 0 0 0 0 0 0 0 0 0 0 0 0 0 0 0 0 0.25 0"/>
<feBlend mode="normal" in2="BackgroundImageFix" result="effect1_dropShadow_59_309"/>
<feBlend mode="normal" in="SourceGraphic" in2="effect1_dropShadow_59_309" result="shape"/>
<feGaussianBlur stdDeviation="1.3" result="effect2_foregroundBlur_59_309"/>
</filter>
<filter id="filter1_df_59_309" x="2" y="0.661978" width="22.0031" height="29.6" filterUnits="userSpaceOnUse" color-interpolation-filters="sRGB">
<feFlood flood-opacity="0" result="BackgroundImageFix"/>
<feColorMatrix in="SourceAlpha" type="matrix" values="0 0 0 0 0 0 0 0 0 0 0 0 0 0 0 0 0 0 127 0" result="hardAlpha"/>
<feOffset dy="4"/>
<feGaussianBlur stdDeviation="2"/>
<feComposite in2="hardAlpha" operator="out"/>
<feColorMatrix type="matrix" values="0 0 0 0 0 0 0 0 0 0 0 0 0 0 0 0 0 0 0.25 0"/>
<feBlend mode="normal" in2="BackgroundImageFix" result="effect1_dropShadow_59_309"/>
<feBlend mode="normal" in="SourceGraphic" in2="effect1_dropShadow_59_309" result="shape"/>
<feGaussianBlur stdDeviation="1.3" result="effect2_foregroundBlur_59_309"/>
</filter>
<radialGradient id="paint0_radial_59_309" cx="0" cy="0" r="1" gradientUnits="userSpaceOnUse" gradientTransform="translate(13 12.5) rotate(90) scale(12.5 13)">
<stop offset="0.8125" stop-color="#9F2021"/>
<stop offset="1" stop-color="#DB470B"/>
</radialGradient>
</defs>
</svg>
