<svg width="26" height="29" viewBox="0 0 26 29" fill="none" xmlns="http://www.w3.org/2000/svg">
<path d="M13 2.5C19.9222 2.5 25.5 7.89088 25.5 14.5C25.5 21.1091 19.9222 26.5 13 26.5C6.07778 26.5 0.5 21.1091 0.5 14.5C0.5 7.89088 6.07778 2.5 13 2.5Z" fill="url(#paint0_radial_59_352)" stroke="#9AFDFD"/>
<path d="M18.1765 9.4038C18.1765 9.29335 18.266 9.2038 18.3765 9.2038H20.8C20.9105 9.2038 21 9.29335 21 9.4038V11.6871C21 11.7975 20.9105 11.8871 20.8 11.8871H18.1765V9.4038Z" fill="#6CFFFF"/>
<path d="M18.1765 9.4038C18.1765 9.29335 18.266 9.2038 18.3765 9.2038H20.8C20.9105 9.2038 21 9.29335 21 9.4038V11.6871C21 11.7975 20.9105 11.8871 20.8 11.8871H18.1765V9.4038Z" fill="#6CFFFF"/>
<path d="M11.1573 7.04234C11.0743 6.9635 11.0743 6.83124 11.1573 6.75239L12.8635 5.13093C12.9407 5.05757 13.0618 5.05757 13.139 5.13093L14.8452 6.75239C14.9282 6.83124 14.9282 6.9635 14.8452 7.04234L13.139 8.6638C13.0618 8.73717 12.9407 8.73717 12.8635 8.6638L11.1573 7.04234Z" fill="#6CFFFF"/>
<path d="M11.1573 22.2476C11.0743 22.1688 11.0743 22.0365 11.1573 21.9577L12.8635 20.3362C12.9407 20.2628 13.0618 20.2628 13.139 20.3362L14.8452 21.9577C14.9282 22.0365 14.9282 22.1688 14.8452 22.2476L13.139 23.8691C13.0618 23.9424 12.9407 23.9424 12.8635 23.8691L11.1573 22.2476Z" fill="#6CFFFF"/>
<path d="M18.1765 17.2537H20.8C20.9105 17.2537 21 17.3432 21 17.4537V19.7369C21 19.8474 20.9105 19.9369 20.8 19.9369H18.3765C18.266 19.9369 18.1765 19.8474 18.1765 19.7369V17.2537Z" fill="#6CFFFF"/>
<path d="M5 9.4038C5 9.29335 5.08954 9.2038 5.2 9.2038H7.62353C7.73399 9.2038 7.82353 9.29335 7.82353 9.4038V11.8871H5.2C5.08954 11.8871 5 11.7975 5 11.6871V9.4038Z" fill="#6CFFFF"/>
<path d="M5 17.4537C5 17.3432 5.08954 17.2537 5.2 17.2537H7.82353V19.7369C7.82353 19.8474 7.73399 19.9369 7.62353 19.9369H5.2C5.08954 19.9369 5 19.8474 5 19.7369V17.4537Z" fill="#6CFFFF"/>
<path d="M12.8965 8.81918C12.9601 8.7807 13.0399 8.7807 13.1035 8.81918L18.1765 11.8871V17.2537L13.1035 20.3216C13.0399 20.36 12.9601 20.36 12.8965 20.3216L7.82353 17.2537V11.8871L12.8965 8.81918Z" fill="#6CFFFF"/>
<g filter="url(#filter0_f_59_352)">
<path d="M18.1765 9.2038H21V11.8871H18.1765V9.2038Z" fill="#6CFFFF"/>
<path d="M18.1765 9.2038H21V11.8871H18.1765V9.2038Z" fill="#6CFFFF"/>
<path d="M11.0047 6.89737L13.0012 5L14.9978 6.89737L13.0012 8.79473L11.0047 6.89737Z" fill="#6CFFFF"/>
<path d="M11.0047 22.1026L13.0012 20.2053L14.9978 22.1026L13.0012 24L11.0047 22.1026Z" fill="#6CFFFF"/>
<path d="M18.1765 17.2537H21V19.9369H18.1765V17.2537Z" fill="#6CFFFF"/>
<path d="M5 9.2038H7.82353V11.8871H5V9.2038Z" fill="#6CFFFF"/>
<path d="M5 17.2537H7.82353V19.9369H5V17.2537Z" fill="#6CFFFF"/>
<path d="M13 8.75659L18.1765 11.8871V17.2537L13 20.3841L7.82353 17.2537V11.8871L13 8.75659Z" fill="#6CFFFF"/>
</g>
<defs>
<filter id="filter0_f_59_352" x="0" y="0" width="26" height="29" filterUnits="userSpaceOnUse" color-interpolation-filters="sRGB">
<feFlood flood-opacity="0" result="BackgroundImageFix"/>
<feBlend mode="normal" in="SourceGraphic" in2="BackgroundImageFix" result="shape"/>
<feGaussianBlur stdDeviation="2.5" result="effect1_foregroundBlur_59_352"/>
</filter>
<radialGradient id="paint0_radial_59_352" cx="0" cy="0" r="1" gradientUnits="userSpaceOnUse" gradientTransform="translate(13 14.5) rotate(90) scale(12.5 13)">
<stop offset="0.8125" stop-color="#208E9C"/>
<stop offset="1" stop-color="#36C1D5"/>
</radialGradient>
</defs>
</svg>
