<svg width="26" height="25" viewBox="0 0 26 25" fill="none" xmlns="http://www.w3.org/2000/svg">
<path d="M13 0.5C19.9222 0.5 25.5 5.89088 25.5 12.5C25.5 19.1091 19.9222 24.5 13 24.5C6.07778 24.5 0.5 19.1091 0.5 12.5C0.5 5.89088 6.07778 0.5 13 0.5Z" fill="url(#paint0_radial_59_288)" stroke="#E458E4"/>
<circle cx="9.5" cy="8.5" r="3.5" fill="#FF46FF"/>
<circle cx="18" cy="13" r="2" fill="#FF46FF"/>
<path d="M5.70929 17.5856C6.341 16.3792 7.92495 17.4346 8.96968 17.5856C8.96968 17.5856 9.91914 17.0919 10.367 16.5691C10.9225 15.9206 10.6478 15.0686 11.2985 14.5359C12.1716 13.8214 13.2201 13.8214 14.0932 14.5359C14.7439 15.0686 14.5253 15.8684 15.0247 16.5691C15.3406 17.0123 15.5282 17.2742 15.9563 17.5856C17.167 18.4665 19.0317 16.1653 19.6824 17.5856C20.0078 18.2958 22.477 19.1105 19.6824 19.6188C16.8878 20.1271 7.1066 20.1271 5.70929 19.6188C4.31197 19.1105 5.3483 18.275 5.70929 17.5856Z" fill="#FF46FF"/>
<defs>
<radialGradient id="paint0_radial_59_288" cx="0" cy="0" r="1" gradientUnits="userSpaceOnUse" gradientTransform="translate(13 12.5) rotate(90) scale(12.5 13)">
<stop offset="0.8125" stop-color="#63369C"/>
<stop offset="1" stop-color="#6E22C4"/>
</radialGradient>
</defs>
</svg>
